<?xml version="1.0" standalone="no"?>
<!DOCTYPE svg PUBLIC "-//W3C//DTD SVG 20010904//EN"
 "http://www.w3.org/TR/2001/REC-SVG-20010904/DTD/svg10.dtd">
<svg version="1.0" xmlns="http://www.w3.org/2000/svg"
 width="1250.000000pt" height="803.000000pt" viewBox="0 0 1250.000000 803.000000"
 preserveAspectRatio="xMidYMid meet">

<g transform="translate(0.000000,803.000000) scale(0.100000,-0.100000)"
fill="#000000" stroke="none">
<path d="M5183 6315 c-7 -8 -13 -26 -13 -40 0 -16 -6 -25 -15 -25 -9 0 -15 -9
-15 -25 0 -16 -6 -25 -15 -25 -10 0 -15 -10 -15 -30 0 -20 -5 -30 -15 -30 -8
0 -15 -9 -15 -21 0 -13 -4 -18 -12 -13 -8 5 -7 0 2 -11 9 -11 10 -16 3 -11 -8
4 -13 1 -13 -8 0 -9 -7 -16 -15 -16 -10 0 -15 -10 -15 -30 0 -20 -5 -30 -15
-30 -9 0 -15 -9 -15 -25 0 -16 -6 -25 -15 -25 -10 0 -15 -10 -15 -30 0 -20 -5
-30 -15 -30 -8 0 -15 -7 -15 -15 0 -8 -4 -15 -10 -15 -5 0 -10 -11 -10 -25 0
-16 -6 -25 -15 -25 -10 0 -15 -10 -15 -30 0 -20 -5 -30 -15 -30 -9 0 -15 -9
-15 -25 0 -16 -6 -25 -15 -25 -10 0 -15 -10 -15 -30 0 -16 -4 -30 -10 -30 -5
0 -10 -7 -10 -15 0 -8 -7 -15 -15 -15 -9 0 -15 -9 -15 -25 0 -16 -6 -25 -15
-25 -10 0 -15 -10 -15 -30 0 -20 -5 -30 -15 -30 -9 0 -15 -9 -15 -25 0 -16 -6
-25 -15 -25 -8 0 -15 -9 -15 -21 0 -13 -4 -18 -12 -13 -8 5 -7 0 2 -11 9 -11
10 -16 3 -11 -9 5 -13 0 -13 -13 0 -12 -7 -21 -15 -21 -9 0 -15 -9 -15 -25 0
-16 -6 -25 -15 -25 -10 0 -15 -10 -15 -30 0 -20 -5 -30 -15 -30 -9 0 -15 -9
-15 -25 0 -14 -4 -25 -10 -25 -5 0 -10 -7 -10 -15 0 -8 -7 -15 -15 -15 -10 0
-15 -10 -15 -30 0 -20 -5 -30 -15 -30 -9 0 -15 -9 -15 -25 0 -16 -6 -25 -15
-25 -10 0 -15 -10 -15 -30 0 -20 -5 -30 -15 -30 -9 0 -15 -9 -15 -25 0 -14 -4
-25 -10 -25 -5 0 -10 -7 -10 -15 0 -8 -7 -15 -15 -15 -10 0 -15 -10 -15 -30 0
-20 -5 -30 -15 -30 -9 0 -15 -9 -15 -25 0 -16 -6 -25 -15 -25 -10 0 -15 -10
-15 -29 0 -16 -5 -31 -10 -33 -6 -2 -12 -13 -13 -25 -1 -17 -4 -19 -14 -11
-10 8 -13 5 -13 -16 0 -16 -5 -26 -15 -26 -10 0 -15 -10 -15 -30 0 -20 -5 -30
-15 -30 -10 0 -15 -10 -15 -26 0 -24 -2 -25 -17 -13 -9 8 -14 9 -10 3 3 -6 0
-23 -8 -38 -8 -14 -10 -24 -6 -21 5 3 4 -6 -2 -20 -7 -14 -18 -25 -24 -25 -7
0 -13 -11 -13 -25 0 -16 -6 -25 -15 -25 -10 0 -15 -10 -15 -30 0 -20 -5 -30
-15 -30 -9 0 -15 -9 -15 -25 0 -14 -4 -25 -10 -25 -5 0 -10 -13 -10 -30 0 -20
-5 -30 -15 -30 -8 0 -15 -7 -15 -15 0 -8 -7 -15 -15 -15 -9 0 -15 -9 -15 -25
0 -16 -6 -25 -15 -25 -10 0 -15 -10 -15 -30 0 -20 -5 -30 -15 -30 -9 0 -15 -9
-15 -25 0 -14 -4 -25 -10 -25 -5 0 -10 -11 -10 -25 0 -14 -7 -28 -15 -31 -8
-4 -15 -12 -15 -20 0 -8 -7 -14 -15 -14 -9 0 -15 -9 -15 -25 0 -16 -6 -25 -15
-25 -8 0 -15 -7 -15 -15 0 -8 -4 -15 -10 -15 -5 0 -10 -13 -10 -30 0 -20 -5
-30 -15 -30 -9 0 -15 -9 -15 -25 0 -16 -6 -25 -15 -25 -8 0 -15 -7 -15 -15 0
-8 -7 -15 -15 -15 -9 0 -15 -9 -15 -25 0 -16 -6 -25 -15 -25 -10 0 -15 -10
-15 -30 0 -16 -4 -30 -10 -30 -5 0 -10 -13 -10 -30 0 -20 -5 -30 -15 -30 -8 0
-15 -4 -15 -10 0 -5 -7 -10 -15 -10 -11 0 -15 -12 -15 -45 0 -33 -4 -45 -15
-45 -9 0 -15 -9 -15 -25 0 -14 -4 -25 -10 -25 -5 0 -10 -13 -10 -30 0 -16 5
-30 10 -30 6 0 10 -7 10 -15 0 -8 7 -15 15 -15 8 0 15 -4 15 -10 0 -5 7 -10
15 -10 9 0 15 9 15 25 0 16 -6 25 -15 25 -8 0 -15 7 -15 15 0 8 -7 15 -15 15
-8 0 -15 7 -15 15 0 8 7 15 15 15 8 0 15 5 15 10 0 6 7 10 15 10 10 0 15 10
15 30 0 25 4 30 25 30 23 0 25 4 25 40 0 29 4 40 15 40 8 0 15 7 15 15 0 8 7
15 15 15 11 0 15 12 15 45 0 33 4 45 15 45 8 0 15 5 15 10 0 6 7 10 15 10 11
0 15 12 15 45 0 41 2 45 25 45 14 0 25 5 25 10 0 6 7 10 15 10 11 0 15 12 15
45 0 33 4 45 15 45 13 0 20 18 16 43 0 4 24 7 54 7 42 0 55 3 55 15 0 8 7 15
15 15 9 0 15 -9 15 -25 0 -16 -6 -25 -15 -25 -10 0 -15 -10 -15 -30 0 -20 -5
-30 -15 -30 -8 0 -15 -7 -15 -15 0 -8 -7 -15 -15 -15 -9 0 -15 -9 -15 -25 0
-24 -28 -38 -31 -15 -1 6 -2 14 -3 19 0 5 -5 13 -9 18 -5 4 -8 3 -7 -2 5 -25
-1 -45 -15 -45 -8 0 -15 -7 -15 -15 0 -8 -7 -15 -15 -15 -10 0 -15 -10 -15
-30 0 -20 -5 -30 -15 -30 -9 0 -15 -9 -15 -25 0 -16 6 -25 15 -25 9 0 15 9 15
25 0 16 6 25 15 25 12 0 15 -13 15 -55 0 -42 -3 -55 -15 -55 -8 0 -15 -7 -15
-15 0 -8 -5 -15 -11 -15 -14 0 -39 -25 -39 -39 0 -6 -7 -11 -15 -11 -8 0 -15
-7 -15 -15 0 -8 -7 -15 -15 -15 -10 0 -15 -10 -15 -30 0 -20 -5 -30 -15 -30
-9 0 -15 -9 -15 -25 0 -16 -6 -25 -15 -25 -10 0 -15 -10 -15 -30 0 -16 -4 -30
-10 -30 -5 0 -10 -11 -10 -25 0 -16 -6 -25 -15 -25 -11 0 -15 -12 -15 -45 0
-33 -4 -45 -15 -45 -9 0 -15 -9 -15 -25 0 -16 -6 -25 -15 -25 -8 0 -15 -7 -15
-15 0 -8 -4 -15 -10 -15 -5 0 -10 -11 -10 -25 0 -16 -6 -25 -15 -25 -11 0 -15
-11 -15 -36 0 -25 4 -33 13 -28 10 6 10 4 0 -7 -7 -7 -13 -21 -13 -31 0 -10
-7 -18 -15 -18 -12 0 -15 -13 -15 -55 0 -42 -3 -55 -15 -55 -8 0 -15 -4 -15
-10 0 -5 -7 -10 -15 -10 -8 0 -15 -7 -15 -15 0 -8 -4 -15 -10 -15 -5 0 -10 -7
-10 -15 0 -8 -7 -15 -15 -15 -12 0 -15 -14 -15 -70 0 -56 3 -70 15 -70 8 0 15
7 15 15 0 8 5 15 10 15 6 0 10 11 10 25 0 16 6 25 15 25 8 0 15 7 15 15 0 10
10 15 30 15 20 0 30 -5 30 -15 0 -8 -7 -15 -15 -15 -11 0 -15 -11 -15 -40 0
-29 -4 -40 -15 -40 -9 0 -15 -9 -15 -25 0 -16 6 -25 15 -25 8 0 15 -7 15 -15
0 -8 -7 -15 -15 -15 -8 0 -15 -7 -15 -15 0 -8 -7 -15 -15 -15 -8 0 -15 -7 -15
-15 0 -8 7 -15 15 -15 9 0 15 -9 15 -25 0 -16 -6 -25 -15 -25 -8 0 -15 -7 -15
-15 0 -8 -4 -15 -10 -15 -5 0 -10 -13 -10 -30 0 -16 5 -30 10 -30 6 0 10 7 10
15 0 8 7 15 15 15 10 0 15 10 15 30 0 20 5 30 15 30 8 0 15 5 15 10 0 6 7 10
15 10 11 0 15 12 15 45 0 33 4 45 15 45 8 0 15 7 15 15 0 8 -7 15 -15 15 -8 0
-15 5 -15 10 0 14 27 12 34 -2 5 -10 7 -10 12 0 3 6 12 12 20 12 9 0 14 11 14
30 0 20 5 30 15 30 9 0 15 9 15 25 0 20 5 25 25 25 14 0 25 -4 25 -10 0 -5 -4
-10 -10 -10 -5 0 -10 -7 -10 -15 0 -8 -7 -15 -15 -15 -12 0 -15 -13 -15 -55 0
-42 -3 -55 -15 -55 -10 0 -15 -10 -15 -30 0 -20 -5 -30 -15 -30 -8 0 -15 -5
-15 -11 0 -14 -25 -39 -39 -39 -6 0 -11 -7 -11 -15 0 -8 -7 -15 -15 -15 -8 0
-15 -7 -15 -15 0 -8 7 -15 15 -15 11 0 15 -11 15 -40 0 -29 4 -40 15 -40 11 0
15 11 15 40 0 36 3 40 25 40 23 0 25 4 25 40 0 29 4 40 15 40 10 0 15 10 15
30 0 28 2 30 40 30 l40 0 0 55 c0 42 3 55 15 55 10 0 15 10 15 30 0 20 5 30
15 30 8 0 15 5 15 10 0 6 7 10 15 10 10 0 15 10 15 30 0 17 5 30 10 30 6 0 10
7 10 15 0 8 7 15 15 15 8 0 15 7 15 15 0 8 7 15 15 15 8 0 15 5 15 10 0 6 7
10 15 10 8 0 15 7 15 15 0 9 9 15 25 15 16 0 25 -6 25 -15 0 -8 -7 -15 -15
-15 -9 0 -15 -9 -15 -25 0 -14 -4 -25 -10 -25 -5 0 -10 -7 -10 -15 0 -8 5 -15
10 -15 6 0 10 -7 10 -15 0 -8 7 -15 15 -15 8 0 15 7 15 15 0 8 7 15 15 15 8 0
15 -7 15 -15 0 -8 7 -15 15 -15 8 0 15 7 15 15 0 8 -7 15 -15 15 -8 0 -15 7
-15 15 0 8 7 15 15 15 8 0 15 7 15 15 0 8 7 15 15 15 12 0 15 13 15 55 0 52 1
55 25 55 14 0 25 5 25 10 0 6 7 10 15 10 8 0 15 7 15 15 0 8 7 15 15 15 10 0
15 10 15 30 0 17 5 30 10 30 6 0 10 7 10 15 0 8 7 15 15 15 9 0 15 9 15 25 0
16 6 25 15 25 10 0 15 10 15 30 0 20 5 30 15 30 8 0 15 5 15 10 0 6 7 10 15
10 9 0 15 -9 15 -25 0 -16 -6 -25 -15 -25 -12 0 -15 -13 -15 -55 0 -42 3 -55
15 -55 11 0 15 11 15 40 0 22 5 40 10 40 6 0 10 14 10 30 0 20 5 30 15 30 8 0
15 5 15 10 0 6 7 10 15 10 8 0 15 7 15 15 0 8 7 15 15 15 10 0 15 10 15 30 0
17 5 30 10 30 6 0 10 11 10 25 0 16 6 25 15 25 10 0 15 10 15 30 0 20 5 30 15
30 9 0 15 9 15 25 0 16 6 25 15 25 10 0 15 10 15 30 0 20 5 30 15 30 9 0 15
10 15 26 0 26 20 54 39 54 6 0 11 7 11 15 0 8 7 15 15 15 8 0 15 7 15 15 0 8
7 15 15 15 12 0 15 13 15 55 0 52 1 55 25 55 16 0 25 6 25 15 0 8 7 15 15 15
8 0 15 7 15 15 0 10 -10 15 -30 15 -28 0 -30 2 -30 40 0 29 4 40 15 40 10 0
15 10 15 30 0 20 5 30 15 30 8 0 15 5 15 10 0 6 14 10 30 10 29 0 30 2 30 45
0 41 2 45 25 45 14 0 25 5 25 10 0 6 7 10 15 10 8 0 15 7 15 15 0 8 7 15 15
15 8 0 15 7 15 15 0 8 5 15 10 15 6 0 10 14 10 30 0 20 5 30 15 30 9 0 15 9
15 25 0 16 6 25 15 25 10 0 15 10 15 30 0 20 5 30 15 30 8 0 15 5 15 10 0 6 7
10 15 10 10 0 15 10 15 30 0 17 5 30 10 30 6 0 10 14 10 30 0 20 5 30 15 30 8
0 15 5 15 10 0 6 7 10 15 10 8 0 15 7 15 15 0 8 7 15 15 15 8 0 16 7 16 15 3
28 4 33 12 41 4 4 7 18 7 31 0 14 6 23 15 23 10 0 15 10 15 30 0 20 5 30 15
30 8 0 15 -7 15 -15 0 -8 7 -15 15 -15 10 0 15 -10 15 -30 0 -20 5 -30 15 -30
13 0 20 -18 16 -42 0 -5 3 -8 9 -8 5 0 10 -7 10 -15 0 -8 7 -15 15 -15 9 0 15
-9 15 -25 0 -16 6 -25 15 -25 13 0 21 -25 16 -52 0 -5 6 -8 14 -8 8 0 15 -7
15 -15 0 -8 5 -15 10 -15 6 0 10 -11 10 -25 0 -16 6 -25 15 -25 8 0 15 -7 15
-15 0 -8 7 -15 15 -15 10 0 15 -10 15 -30 0 -20 5 -30 15 -30 9 0 15 -9 15
-25 0 -16 6 -25 15 -25 8 0 15 -7 15 -15 0 -8 5 -15 10 -15 6 0 10 -13 10 -30
0 -20 5 -30 15 -30 9 0 15 -9 15 -25 0 -16 6 -25 15 -25 8 0 15 -7 15 -15 0
-8 7 -15 15 -15 9 0 15 -9 15 -25 0 -14 5 -25 10 -25 6 0 10 -13 10 -30 0 -20
5 -30 15 -30 8 0 15 -7 15 -15 0 -8 7 -15 15 -15 9 0 15 -9 15 -25 0 -16 6
-25 15 -25 10 0 15 -10 15 -30 0 -20 5 -30 15 -30 8 0 15 -7 15 -15 0 -8 5
-15 10 -15 6 0 10 -11 10 -25 l0 -25 515 0 515 0 0 25 c0 16 -6 25 -15 25 -10
0 -15 10 -15 30 0 17 -4 30 -10 30 -5 0 -10 7 -10 15 0 8 -7 15 -15 15 -9 0
-15 9 -15 25 0 16 -6 25 -15 25 -10 0 -15 10 -15 30 0 20 -5 30 -15 30 -8 0
-15 7 -15 15 0 8 -7 15 -15 15 -9 0 -15 9 -15 25 0 14 -4 25 -10 25 -5 0 -10
7 -10 15 0 8 -7 15 -15 15 -9 0 -15 9 -15 25 0 16 -6 25 -15 25 -8 0 -16 7
-16 15 -3 29 -4 33 -13 42 -5 4 -6 3 -2 -4 3 -6 3 -14 -2 -17 -4 -2 -9 7 -10
22 -1 15 -7 29 -12 30 -6 2 -10 10 -10 18 0 8 -7 14 -15 14 -9 0 -15 9 -15 25
0 16 -6 25 -15 25 -8 0 -15 7 -15 15 0 8 -7 15 -15 15 -8 0 -15 7 -15 15 0 8
-5 15 -11 15 -14 0 -39 25 -39 39 0 6 -7 11 -15 11 -8 0 -15 7 -15 15 0 8 -7
15 -15 15 -8 0 -15 7 -15 15 0 8 -7 15 -15 15 -8 0 -15 5 -15 11 0 14 -25 39
-39 39 -6 0 -11 7 -11 15 0 8 -7 15 -15 15 -8 0 -15 7 -15 15 0 8 -7 15 -15
15 -8 0 -15 7 -15 15 0 8 -5 15 -11 15 -14 0 -39 25 -39 39 0 17 17 13 24 -5
3 -8 10 -12 16 -9 15 9 12 25 -5 25 -8 0 -15 7 -15 15 0 8 -4 15 -10 15 -16 0
-12 21 8 37 9 8 12 12 6 9 -7 -3 -9 12 -6 45 2 27 -1 49 -6 49 -5 0 -12 9 -15
21 -3 12 -10 18 -16 14 -7 -4 -11 4 -11 19 0 16 -6 26 -15 26 -10 0 -15 10
-15 30 0 20 -5 30 -15 30 -9 0 -15 9 -15 25 0 14 -4 25 -10 25 -5 0 -10 7 -10
15 0 8 -7 15 -15 15 -10 0 -15 10 -15 30 0 20 -5 30 -15 30 -9 0 -15 9 -15 25
0 16 -6 25 -15 25 -8 0 -15 7 -15 15 0 8 -7 15 -15 15 -9 0 -15 10 -15 26 0
26 -20 54 -39 54 -6 0 -11 14 -11 30 0 20 -5 30 -15 30 -9 0 -15 9 -15 25 0
16 -6 25 -15 25 -8 0 -15 7 -15 15 0 8 -4 15 -10 15 -5 0 -10 14 -10 30 0 20
-5 30 -15 30 -9 0 -15 9 -15 25 0 16 -6 25 -15 25 -8 0 -15 7 -15 15 0 8 -7
15 -15 15 -10 0 -15 10 -15 30 0 17 -5 30 -11 30 -19 0 -39 28 -39 54 0 16 -6
26 -15 26 -10 0 -15 10 -15 30 0 20 -5 30 -15 30 -8 0 -15 5 -15 10 0 6 -7 10
-15 10 -10 0 -15 10 -15 30 0 17 -4 30 -10 30 -5 0 -10 11 -10 25 0 16 -6 25
-15 25 -8 0 -15 7 -15 15 0 8 -7 15 -15 15 -10 0 -15 10 -15 30 0 20 -5 30
-15 30 -8 0 -15 7 -15 15 0 8 -7 15 -15 15 -9 0 -15 9 -15 25 0 14 -4 25 -10
25 -5 0 -10 14 -10 30 0 20 -5 30 -15 30 -8 0 -15 5 -15 10 0 6 -7 10 -15 10
-10 0 -15 10 -15 30 0 20 -5 30 -15 30 -8 0 -15 7 -15 15 0 8 -4 15 -10 15 -5
0 -10 11 -10 25 0 16 -6 25 -15 25 -10 0 -15 10 -15 30 0 20 -5 30 -15 30 -8
0 -15 7 -15 15 0 8 -7 15 -15 15 -8 0 -15 5 -15 10 0 15 -23 12 -37 -5z m987
-1601 c0 -8 -19 -13 -24 -6 -3 5 1 9 9 9 8 0 15 -2 15 -3z m-97 -29 c-3 -9 -8
-14 -10 -11 -3 3 -2 9 2 15 9 16 15 13 8 -4z m83 -27 c4 -4 -3 -6 -15 -3 -11
2 -21 0 -21 -6 0 -5 5 -9 10 -9 6 0 10 -6 10 -13 0 -8 -7 -14 -15 -14 -9 0
-15 10 -15 26 0 18 -3 22 -9 13 -7 -11 -9 -11 -14 0 -4 11 4 14 28 13 19 0 37
-4 41 -7z m-1879 -173 c0 -8 -6 -15 -12 -15 -6 0 -12 7 -12 15 0 8 6 15 12 15
6 0 12 -7 12 -15z m-217 -391 c0 -8 -19 -13 -24 -6 -3 5 1 9 9 9 8 0 15 -2 15
-3z m-60 -49 c0 -8 -7 -15 -15 -15 -8 0 -15 7 -15 15 0 8 7 15 15 15 8 0 15
-7 15 -15z m-80 -310 c0 -8 -7 -15 -15 -15 -8 0 -15 7 -15 15 0 8 7 15 15 15
8 0 15 -7 15 -15z m360 -470 c0 -8 -7 -15 -15 -15 -8 0 -15 -7 -15 -15 0 -8
-7 -15 -15 -15 -8 0 -15 7 -15 15 0 8 7 15 15 15 8 0 15 7 15 15 0 8 7 15 15
15 8 0 15 -7 15 -15z m-60 -85 c0 -5 -7 -10 -15 -10 -8 0 -15 5 -15 10 0 6 7
10 15 10 8 0 15 -4 15 -10z m-110 -110 c0 -5 -7 -10 -15 -10 -13 0 -21 -26
-16 -53 1 -5 -3 -6 -9 -2 -14 9 -13 43 3 60 14 17 37 20 37 5z"/>
<path d="M5810 6306 c0 -14 5 -26 10 -26 6 0 10 -13 10 -30 0 -20 5 -30 15
-30 9 0 15 -9 15 -25 0 -16 6 -25 15 -25 8 0 15 -7 15 -15 0 -8 7 -15 15 -15
10 0 15 -10 15 -30 0 -16 5 -30 10 -30 6 0 10 -11 10 -25 0 -16 6 -25 15 -25
10 0 15 -10 15 -30 0 -20 5 -30 15 -30 8 0 15 -4 15 -10 0 -5 7 -10 15 -10 10
0 15 -10 15 -30 0 -20 5 -30 15 -30 10 0 15 -10 15 -30 0 -16 5 -30 10 -30 6
0 10 -11 10 -25 0 -16 6 -25 15 -25 8 0 15 -7 15 -15 0 -8 7 -15 15 -15 9 0
15 -9 15 -25 0 -16 6 -25 15 -25 10 0 15 -10 15 -30 0 -16 5 -30 10 -30 6 0
10 -13 10 -30 0 -20 5 -30 15 -30 8 0 15 -4 15 -10 0 -5 7 -10 15 -10 10 0 15
-10 15 -30 0 -20 5 -30 15 -30 9 0 15 -9 15 -25 0 -16 6 -25 15 -25 10 0 15
-10 15 -30 0 -16 5 -30 10 -30 6 0 10 -7 10 -15 0 -13 110 -15 930 -15 820 0
930 -2 930 -15 0 -8 7 -15 15 -15 8 0 15 -4 15 -10 0 -5 7 -10 15 -10 8 0 15
-7 15 -15 0 -8 7 -15 15 -15 11 0 15 -11 15 -40 0 -29 4 -40 15 -40 12 0 15
-14 15 -70 0 -56 -3 -70 -15 -70 -11 0 -15 -12 -15 -45 0 -33 -4 -45 -15 -45
-8 0 -15 -4 -15 -10 0 -5 -7 -10 -15 -10 -8 0 -15 -7 -15 -15 0 -9 -9 -15 -25
-15 -16 0 -25 -6 -25 -15 0 -13 -89 -15 -740 -15 -651 0 -740 -2 -740 -15 0
-8 7 -15 15 -15 9 0 15 -9 15 -25 0 -16 6 -25 15 -25 10 0 15 -10 15 -30 0
-20 5 -30 15 -30 9 0 15 -9 15 -25 0 -16 6 -25 15 -25 8 0 15 -7 15 -15 0 -8
5 -15 10 -15 6 0 10 -13 10 -30 0 -20 5 -30 15 -30 9 0 15 -9 15 -25 0 -16 6
-25 15 -25 10 0 15 -10 15 -30 0 -20 5 -30 15 -30 8 0 15 -7 15 -15 0 -8 5
-15 10 -15 6 0 10 -11 10 -25 0 -16 6 -25 15 -25 10 0 15 -10 15 -30 0 -20 5
-30 15 -30 9 0 15 -9 15 -25 0 -16 6 -25 15 -25 8 0 15 -7 15 -15 0 -8 7 -15
15 -15 10 0 15 -10 15 -30 0 -16 5 -30 10 -30 6 0 10 -11 10 -25 0 -16 6 -25
15 -25 8 0 15 -7 15 -15 0 -8 7 -15 15 -15 8 0 15 -7 15 -15 0 -12 18 -15 101
-15 77 0 98 3 93 13 -5 7 0 6 11 -3 17 -14 18 -13 13 2 -7 17 14 20 29 3 4 -4
2 -5 -4 -1 -7 4 -13 3 -13 -2 0 -12 58 -13 65 -2 3 5 -4 7 -15 5 -11 -2 -18 0
-15 5 3 5 165 9 370 10 320 0 365 -1 365 -15 0 -13 33 -22 64 -16 5 1 4 -4 -2
-12 -10 -12 -8 -14 14 -14 14 0 30 -6 34 -13 4 -7 15 -10 23 -7 11 4 13 0 10
-14 -4 -13 0 -19 11 -19 9 0 16 -8 16 -21 0 -13 4 -18 13 -13 7 5 6 0 -3 -11
-9 -11 -10 -16 -2 -11 7 4 12 1 12 -8 0 -16 29 -23 31 -8 0 4 2 17 5 30 2 13
0 21 -5 18 -5 -3 -15 2 -22 12 -13 16 -13 16 5 2 18 -14 19 -13 13 5 -7 19 -6
19 7 2 11 -14 15 -15 20 -5 3 7 3 2 -1 -12 -5 -23 -5 -24 13 -10 17 14 18 13
7 -1 -7 -9 -9 -20 -5 -25 4 -4 -2 -2 -13 6 -19 14 -19 14 -2 -6 9 -11 14 -25
10 -29 -5 -5 0 -3 10 4 10 8 16 20 13 28 -3 7 -1 13 3 13 16 0 19 -24 20 -148
1 -78 -2 -122 -9 -122 -5 0 -10 -11 -10 -25 0 -16 -6 -25 -15 -25 -8 0 -15 -7
-15 -15 0 -8 -7 -15 -15 -15 -8 0 -15 -7 -15 -15 0 -8 -7 -15 -15 -15 -8 0
-15 -5 -15 -11 0 -19 -28 -39 -54 -39 -14 0 -26 5 -26 10 0 6 -13 10 -30 10
-16 0 -30 -4 -30 -10 0 -5 -18 -10 -40 -10 -29 0 -40 -4 -40 -15 0 -13 -25
-15 -165 -15 -127 0 -164 -3 -162 -12 1 -9 -19 -14 -70 -16 -60 -2 -73 0 -73
13 0 12 -14 15 -70 15 -56 0 -70 -3 -70 -15 0 -13 -76 -15 -625 -15 -618 0
-625 0 -626 -20 -1 -11 -2 -28 -3 -37 -1 -13 8 -19 32 -21 18 -2 32 1 32 7 0
16 107 14 114 -1 5 -10 7 -10 12 0 7 14 94 17 94 2 0 -5 7 -10 15 -10 8 0 15
5 15 10 0 6 38 10 95 10 57 0 95 -4 95 -10 0 -5 14 -10 30 -10 17 0 30 5 30
10 0 6 21 10 46 10 25 0 43 4 40 9 -4 5 5 4 19 -2 14 -7 25 -15 25 -19 0 -5 7
-8 15 -8 8 0 15 -7 15 -15 0 -8 7 -15 15 -15 10 0 15 -10 15 -30 l0 -30 -95 0
c-78 0 -95 3 -95 15 0 12 14 15 65 15 51 0 65 3 65 15 0 13 -21 15 -125 15
-104 0 -125 -2 -125 -15 0 -8 -4 -15 -10 -15 -5 0 -10 7 -10 15 0 10 -10 15
-30 15 -20 0 -30 -5 -30 -15 0 -10 10 -15 30 -15 20 0 30 -5 30 -15 0 -8 -7
-15 -15 -15 -8 0 -15 -4 -15 -10 0 -5 -18 -10 -40 -10 -22 0 -40 5 -40 10 0 6
-77 10 -210 10 -133 0 -210 -4 -210 -10 0 -6 -48 -10 -125 -10 -104 0 -125 -2
-125 -15 0 -11 -11 -15 -40 -15 -29 0 -40 -4 -40 -15 0 -12 -18 -15 -100 -15
-84 0 -100 2 -100 16 0 10 -7 14 -17 12 -10 -2 -17 -10 -15 -16 1 -7 -2 -12
-8 -12 -5 0 -10 -7 -10 -15 0 -10 -10 -15 -30 -15 -20 0 -30 -5 -30 -15 0 -8
7 -15 15 -15 8 0 15 -4 15 -8 0 -5 7 -9 15 -9 8 0 15 4 15 9 0 12 48 10 52 -2
2 -5 15 -11 29 -12 14 -1 26 -8 26 -14 0 -7 -3 -13 -6 -12 -41 4 -81 -4 -81
-17 0 -11 -11 -15 -40 -15 -29 0 -40 -4 -40 -15 0 -8 -7 -15 -16 -15 -8 0 -12
-4 -9 -10 3 -6 -3 -10 -14 -10 -10 0 -22 6 -25 13 -5 9 -7 10 -12 0 -4 -9 -29
-13 -75 -13 l-69 0 0 -30 c0 -26 3 -29 25 -28 16 2 24 7 21 15 -3 8 2 13 14
13 11 0 20 -7 20 -15 0 -11 11 -15 40 -15 29 0 40 4 40 15 0 10 10 15 30 15
20 0 30 -5 30 -15 0 -12 14 -15 70 -15 56 0 70 3 70 15 0 9 9 15 25 15 21 0
25 -5 25 -30 l0 -30 -65 0 c-51 0 -65 -3 -65 -15 0 -12 -13 -15 -60 -15 -47 0
-60 3 -60 15 0 12 -13 15 -55 15 -32 0 -55 -4 -55 -11 0 -14 -25 -39 -39 -39
-6 0 -11 -7 -11 -15 0 -9 9 -15 25 -15 16 0 25 6 25 15 0 10 10 15 30 15 27 0
30 -3 30 -30 0 -20 5 -30 15 -30 8 0 15 6 15 14 0 8 7 17 16 20 8 3 12 10 9
16 -4 6 6 10 24 10 21 0 31 -5 31 -15 0 -8 7 -16 15 -16 29 -3 33 -4 42 -13 4
-5 3 -6 -4 -2 -6 3 -14 3 -17 -2 -2 -4 6 -9 20 -10 15 -1 24 3 24 13 0 13 23
15 140 15 118 0 140 -2 140 -15 0 -12 14 -15 70 -15 68 0 70 -1 70 -25 0 -24
-3 -25 -55 -25 -54 0 -55 0 -55 -30 0 -25 4 -30 25 -30 16 0 25 -6 25 -15 0
-11 12 -15 45 -15 33 0 45 4 45 15 0 11 11 15 40 15 29 0 40 -4 40 -15 0 -11
11 -15 40 -15 29 0 40 -4 40 -15 0 -8 7 -15 15 -15 8 0 15 7 15 15 0 10 10 15
30 15 20 0 30 -5 30 -15 0 -12 16 -15 80 -15 47 0 80 -4 80 -10 0 -5 -18 -10
-40 -10 -29 0 -40 -4 -40 -15 0 -11 -11 -15 -40 -15 -29 0 -40 -4 -40 -15 0
-11 11 -15 40 -15 29 0 40 4 40 15 0 11 11 15 40 15 29 0 40 -4 40 -15 0 -12
17 -15 91 -15 69 0 88 3 83 13 -5 7 0 6 11 -3 17 -14 18 -13 12 3 -6 16 6 17
163 17 144 0 170 -2 170 -15 0 -12 13 -15 55 -15 42 0 55 3 55 15 0 10 10 15
30 15 20 0 30 -5 30 -15 0 -13 79 -15 650 -15 571 0 650 2 650 15 0 12 14 15
70 15 56 0 70 3 70 15 0 11 12 15 45 15 25 0 45 5 45 10 0 6 18 10 40 10 29 0
40 4 40 15 0 10 10 15 30 15 20 0 30 5 30 15 0 8 5 15 10 15 6 0 10 7 10 16 0
8 5 12 10 9 6 -4 7 -11 4 -17 -4 -7 -2 -8 5 -4 6 4 9 12 6 17 -4 5 3 9 14 9
12 0 21 7 21 15 0 8 5 15 11 15 6 0 17 6 25 14 8 8 14 19 14 25 0 6 14 11 30
11 27 0 30 3 30 31 0 18 4 28 10 24 6 -4 7 -12 4 -18 -4 -7 -3 -8 2 -4 5 5 10
13 10 18 1 5 2 14 3 19 0 6 8 10 16 10 8 0 15 7 15 15 0 8 5 15 10 15 6 0 10
14 10 30 0 20 5 30 15 30 8 0 15 7 15 15 0 8 7 15 15 15 9 0 15 9 15 25 0 16
6 25 15 25 11 0 15 11 15 40 0 22 5 40 10 40 6 0 10 20 10 45 0 33 4 45 15 45
12 0 15 14 15 70 0 56 3 70 15 70 13 0 15 36 15 265 0 229 -2 265 -15 265 -12
0 -15 13 -15 55 0 42 -3 55 -15 55 -11 0 -15 11 -15 40 0 22 -4 40 -10 40 -5
0 -10 14 -10 30 0 20 -5 30 -15 30 -9 0 -15 9 -15 25 0 16 -6 25 -15 25 -10 0
-15 10 -15 30 0 17 -5 30 -11 30 -14 0 -39 25 -39 39 0 6 -7 11 -15 11 -10 0
-15 10 -15 30 0 25 -4 30 -25 30 -14 0 -28 7 -31 15 -4 8 -10 15 -16 15 -13 0
-38 26 -38 39 0 6 -13 11 -30 11 -27 0 -30 3 -30 30 0 20 5 30 15 30 8 0 15 5
15 10 0 6 11 10 25 10 16 0 25 6 25 15 0 8 7 15 15 15 8 0 15 7 15 15 0 8 7
15 15 15 10 0 15 10 15 30 0 20 5 30 15 30 8 0 15 5 15 10 0 6 6 10 13 10 14
0 37 45 37 72 0 10 7 18 15 18 11 0 15 11 15 40 0 29 4 40 15 40 11 0 15 11
15 40 0 29 4 40 15 40 12 0 15 14 15 70 0 40 4 70 10 70 6 0 10 77 10 210 0
133 -4 210 -10 210 -6 0 -10 30 -10 70 0 56 -3 70 -15 70 -11 0 -15 11 -15 40
0 29 -4 40 -15 40 -10 0 -15 10 -15 30 0 20 -5 30 -15 30 -10 0 -15 10 -15 31
0 21 -4 28 -12 23 -8 -5 -7 0 2 11 9 11 10 16 3 11 -9 -5 -13 0 -13 13 0 12
-7 21 -15 21 -9 0 -15 9 -15 25 0 16 -6 25 -15 25 -8 0 -15 7 -15 15 0 8 -7
15 -15 15 -8 0 -15 7 -15 15 0 8 -7 15 -15 15 -8 0 -15 5 -15 11 0 14 -25 39
-39 39 -6 0 -11 7 -11 15 0 8 -7 15 -15 15 -8 0 -15 7 -15 15 0 8 -7 15 -15
15 -8 0 -15 7 -15 15 0 9 -9 15 -25 15 -16 0 -25 6 -25 15 0 8 -9 15 -21 15
-11 0 -17 5 -14 10 4 6 -10 10 -34 10 -30 0 -41 4 -41 15 0 10 -10 15 -30 15
-20 0 -30 5 -30 15 0 11 -12 15 -44 15 -25 0 -48 5 -52 12 -5 7 -3 8 6 3 9 -5
11 -4 6 3 -4 7 -34 12 -72 12 -37 0 -64 4 -64 10 0 7 -64 10 -185 10 -106 -1
-185 -5 -185 -11 0 -5 3 -8 8 -8 22 4 42 -2 40 -12 -2 -6 5 -13 15 -14 9 -2
15 1 11 6 -3 5 -11 6 -17 3 -7 -4 -8 -3 -4 1 20 23 37 13 37 -21 0 -20 4 -33
9 -29 5 3 12 1 15 -4 4 -5 1 -13 -5 -17 -8 -5 -9 -3 -4 6 5 9 4 11 -4 6 -6 -4
-9 -12 -6 -17 4 -5 0 -9 -7 -9 -8 0 -9 -3 -3 -8 6 -4 10 -27 10 -52 -1 -25 2
-56 7 -70 8 -25 8 -25 4 2 -2 15 0 25 4 23 4 -2 7 2 7 10 0 8 -3 12 -7 10 -3
-2 -6 16 -6 40 1 24 5 41 10 38 4 -3 5 -19 2 -35 -3 -16 -2 -27 3 -24 5 3 7
-13 4 -37 -3 -23 -6 -50 -6 -59 -1 -9 -4 -16 -7 -16 -43 4 -52 -3 -48 -35 3
-31 2 -33 -25 -29 -21 3 -27 9 -24 21 3 14 -2 16 -30 13 -24 -3 -33 0 -33 11
0 8 -9 17 -21 20 -13 4 -18 10 -13 18 4 7 3 10 -3 6 -5 -3 -22 0 -37 8 -14 8
-24 10 -21 5 4 -6 1 -10 -4 -10 -6 0 -11 5 -11 10 0 6 -11 10 -25 10 -16 0
-25 6 -25 15 0 10 -10 15 -30 15 -20 0 -30 5 -30 15 0 11 -11 15 -40 15 -34 0
-40 3 -40 21 0 13 -4 18 -12 13 -7 -4 -6 1 3 12 22 25 28 57 12 69 -7 6 -10
19 -7 33 7 24 -8 23 227 25 64 1 117 5 117 8 0 4 -495 7 -1100 8 l-1100 2 0
-25z m2317 -18 c-3 -8 -6 -5 -6 6 -1 11 2 17 5 13 3 -3 4 -12 1 -19z m39 10
c4 -7 3 -8 -4 -4 -7 4 -12 2 -12 -5 0 -7 -3 -10 -6 -6 -6 5 3 27 11 27 2 0 7
-5 11 -12z m-522 -113 c-4 -8 -12 -15 -20 -15 -8 0 -14 7 -14 15 0 8 9 15 20
15 13 0 18 -5 14 -15z m460 -181 c3 -8 2 -12 -4 -9 -6 3 -10 10 -10 16 0 14 7
11 14 -7z m83 -129 c0 -8 -4 -12 -9 -9 -5 3 -6 10 -3 15 9 13 12 11 12 -6z
m194 -1752 c13 -16 12 -17 -3 -4 -10 7 -18 15 -18 17 0 8 8 3 21 -13z m39 -55
c0 -7 -4 -19 -9 -26 -7 -11 -10 -10 -15 3 -10 26 -7 35 9 35 8 0 15 -6 15 -12z
m-640 -613 c0 -12 14 -15 70 -15 40 0 70 -4 70 -10 0 -6 -30 -10 -70 -10 -56
0 -70 -3 -70 -15 0 -8 -7 -15 -15 -15 -8 0 -15 7 -15 15 0 8 -7 15 -15 15 -8
0 -15 5 -15 10 0 6 7 10 15 10 8 0 15 7 15 15 0 8 7 15 15 15 8 0 15 -7 15
-15z m220 0 c0 -8 7 -15 15 -15 8 0 15 -4 15 -10 0 -5 -20 -10 -45 -10 -25 0
-45 5 -45 10 0 6 7 10 15 10 8 0 15 7 15 15 0 8 7 15 15 15 8 0 15 -7 15 -15z
m-970 -25 c0 -5 -7 -10 -15 -10 -8 0 -15 5 -15 10 0 6 7 10 15 10 8 0 15 -4
15 -10z m80 0 c0 -5 -7 -10 -15 -10 -8 0 -15 5 -15 10 0 6 7 10 15 10 8 0 15
-4 15 -10z m580 0 c0 -6 -38 -10 -95 -10 -57 0 -95 4 -95 10 0 6 38 10 95 10
57 0 95 -4 95 -10z m-957 -85 c-1 -5 -14 -11 -28 -13 -19 -3 -24 0 -19 13 7
17 51 17 47 0z m-1173 -300 c0 -8 -7 -15 -15 -15 -8 0 -15 7 -15 15 0 8 7 15
15 15 8 0 15 -7 15 -15z m690 -225 c0 -5 -18 -10 -40 -10 -22 0 -40 5 -40 10
0 6 18 10 40 10 22 0 40 -4 40 -10z m250 -55 c0 -10 -10 -15 -30 -15 -20 0
-30 5 -30 15 0 10 10 15 30 15 20 0 30 -5 30 -15z m780 -85 c0 -5 -13 -10 -30
-10 -20 0 -30 -5 -30 -15 0 -9 -9 -15 -25 -15 -16 0 -25 6 -25 15 0 9 9 15 25
15 14 0 25 5 25 10 0 6 14 10 30 10 17 0 30 -4 30 -10z"/>
<path d="M7703 6288 c-6 -7 -11 -28 -11 -46 0 -18 -6 -39 -12 -47 -8 -10 -8
-15 1 -21 7 -4 9 -3 5 4 -3 6 -2 13 4 17 5 3 10 16 11 28 0 21 1 21 9 2 8 -19
9 -19 9 -1 1 14 4 16 15 7 11 -9 13 -7 12 11 -3 33 6 45 16 22 8 -18 8 -18 5
0 -3 27 -34 28 -52 3 -11 -15 -15 -17 -15 -6 0 8 5 20 12 27 7 7 9 12 6 12 -3
0 -10 -6 -15 -12z m34 -26 c1 -10 -5 -19 -12 -19 -10 0 -11 5 -4 19 5 10 11
18 12 18 2 0 3 -8 4 -18z"/>
<path d="M8101 6080 c0 -8 4 -22 9 -30 12 -18 12 -2 0 25 -6 13 -9 15 -9 5z"/>
<path d="M6196 4708 c3 -5 10 -6 15 -3 13 9 11 12 -6 12 -8 0 -12 -4 -9 -9z"/>
<path d="M6226 4662 c-3 -6 -1 -14 5 -17 15 -10 25 3 12 16 -7 7 -13 7 -17 1z"/>
<path d="M3970 3935 c0 -8 -7 -15 -15 -15 -10 0 -15 -10 -15 -30 0 -20 5 -30
15 -30 8 0 15 7 15 15 0 8 7 15 15 15 10 0 15 10 15 30 0 20 -5 30 -15 30 -8
0 -15 -7 -15 -15z"/>
<path d="M8369 3908 c-1 -2 -2 -25 -4 -53 -1 -27 0 -44 3 -36 3 10 6 11 12 1
5 -7 7 0 7 18 -1 17 -5 28 -9 26 -5 -3 -8 -1 -8 5 0 5 6 12 13 14 9 4 9 6 -1
6 -7 1 -10 6 -7 11 3 6 4 10 1 10 -3 0 -7 -1 -7 -2z"/>
<path d="M4720 3710 c0 -5 7 -10 15 -10 8 0 15 5 15 10 0 6 -7 10 -15 10 -8 0
-15 -4 -15 -10z"/>
<path d="M8316 3653 c-6 -14 -5 -15 5 -6 7 7 10 15 7 18 -3 3 -9 -2 -12 -12z"/>
<path d="M6030 3415 c0 -16 6 -25 15 -25 9 0 15 9 15 25 0 16 -6 25 -15 25 -9
0 -15 -9 -15 -25z"/>
<path d="M3610 3405 c0 -8 7 -15 15 -15 8 0 15 7 15 15 0 8 -7 15 -15 15 -8 0
-15 -7 -15 -15z"/>
<path d="M6190 3405 c0 -10 10 -15 30 -15 20 0 30 5 30 15 0 10 -10 15 -30 15
-20 0 -30 -5 -30 -15z"/>
<path d="M3530 3345 c0 -8 -7 -15 -15 -15 -9 0 -15 -9 -15 -25 0 -16 -6 -25
-15 -25 -10 0 -15 -10 -15 -30 0 -20 -5 -30 -15 -30 -8 0 -15 -7 -15 -15 0 -8
-4 -15 -10 -15 -6 0 -9 -3 -9 -7 4 -25 -3 -43 -16 -43 -10 0 -15 -10 -15 -30
0 -20 -5 -30 -15 -30 -8 0 -15 -4 -15 -10 0 -5 7 -10 15 -10 8 0 15 5 15 10 0
6 7 10 15 10 10 0 15 10 15 30 0 17 5 30 10 30 6 0 10 11 10 25 0 24 18 33 34
18 12 -12 56 -14 56 -3 0 7 -12 10 -27 8 -20 -2 -29 2 -31 15 -2 10 3 17 12
17 11 0 16 9 16 30 0 20 5 30 15 30 9 0 15 9 15 25 0 16 6 25 15 25 8 0 15 7
15 15 0 8 -7 15 -15 15 -8 0 -15 -7 -15 -15z"/>
<path d="M5390 3322 c0 -4 11 -9 25 -10 14 -1 25 3 25 8 0 6 -11 10 -25 10
-14 0 -25 -4 -25 -8z"/>
<path d="M5500 3320 c0 -5 25 -10 55 -10 42 0 55 -3 55 -15 0 -8 7 -15 15 -15
8 0 15 7 15 15 0 12 17 15 95 15 57 0 95 4 95 10 0 6 -62 10 -165 10 -103 0
-165 -4 -165 -10z"/>
<path d="M5190 3205 c0 -12 16 -15 84 -15 58 0 86 4 89 13 4 10 6 10 6 0 1
-19 71 -17 71 1 0 12 -24 15 -125 15 -105 1 -125 -1 -125 -14z"/>
<path d="M5146 3131 c-4 -5 -2 -12 3 -15 5 -4 12 -2 15 3 4 5 2 12 -3 15 -5 4
-12 2 -15 -3z"/>
<path d="M5030 3030 l0 -30 80 0 c64 0 80 3 80 15 0 8 7 15 15 15 8 0 15 7 15
15 0 12 -17 15 -95 15 l-95 0 0 -30z"/>
<path d="M3470 2955 c0 -8 -7 -15 -15 -15 -8 0 -15 -7 -15 -16 0 -8 -4 -13 -9
-10 -5 3 -9 0 -8 -7 1 -33 -4 -47 -18 -47 -8 0 -15 -7 -15 -15 0 -8 -7 -15
-15 -15 -9 0 -15 -9 -15 -25 0 -16 -6 -25 -15 -25 -10 0 -15 -10 -15 -30 0
-16 -4 -30 -10 -30 -5 0 -10 -11 -10 -25 0 -14 5 -25 10 -25 6 0 10 11 10 25
0 16 6 25 15 25 8 0 15 7 15 15 0 8 7 15 15 15 11 0 15 11 15 40 0 29 4 40 15
40 8 0 15 7 15 15 0 8 5 15 10 15 6 0 10 7 10 15 0 8 7 15 15 15 9 0 15 9 15
25 0 16 6 25 15 25 8 0 15 7 15 15 0 8 -7 15 -15 15 -8 0 -15 -7 -15 -15z"/>
<path d="M4080 2875 c0 -8 7 -15 15 -15 8 0 15 7 15 15 0 8 -7 15 -15 15 -8 0
-15 -7 -15 -15z"/>
<path d="M5360 2820 c0 -5 7 -10 15 -10 8 0 15 -7 15 -15 0 -8 7 -15 15 -15 9
0 15 9 15 25 0 21 -5 25 -30 25 -16 0 -30 -4 -30 -10z"/>
<path d="M3250 2795 c0 -8 7 -15 15 -15 8 0 15 7 15 15 0 8 -7 15 -15 15 -8 0
-15 -7 -15 -15z"/>
<path d="M5170 2750 c0 -25 4 -29 23 -28 16 2 23 9 24 30 2 24 -2 28 -22 28
-21 0 -25 -5 -25 -30z"/>
<path d="M6060 2705 c0 -8 5 -15 10 -15 6 0 10 7 10 15 0 8 -4 15 -10 15 -5 0
-10 -7 -10 -15z"/>
<path d="M3250 2610 c0 -20 5 -30 15 -30 10 0 15 10 15 30 0 20 -5 30 -15 30
-10 0 -15 -10 -15 -30z"/>
<path d="M3360 2570 c0 -5 -7 -10 -15 -10 -10 0 -15 -10 -15 -30 0 -16 -4 -30
-10 -30 -5 0 -10 -13 -10 -30 0 -20 -5 -30 -15 -30 -8 0 -15 -4 -15 -10 0 -5
-7 -10 -15 -10 -10 0 -15 -10 -15 -30 0 -20 5 -30 15 -30 10 0 15 10 15 30 0
17 5 30 11 30 19 0 39 28 39 54 0 16 6 26 15 26 10 0 15 10 15 30 0 20 5 30
15 30 8 0 15 5 15 10 0 6 -7 10 -15 10 -8 0 -15 -4 -15 -10z"/>
<path d="M7110 2570 c0 -5 7 -10 15 -10 8 0 15 5 15 10 0 6 -7 10 -15 10 -8 0
-15 -4 -15 -10z"/>
<path d="M3360 2455 c0 -8 7 -15 15 -15 8 0 15 7 15 15 0 8 -7 15 -15 15 -8 0
-15 -7 -15 -15z"/>
<path d="M3640 2335 c0 -28 14 -32 36 -11 21 22 17 36 -11 36 -20 0 -25 -5
-25 -25z"/>
<path d="M3283 2295 c0 -6 6 -12 14 -12 7 0 13 6 13 12 0 6 -6 12 -13 12 -8 0
-14 -6 -14 -12z"/>
<path d="M3373 2292 c9 -13 9 -14 0 -8 -9 5 -13 0 -13 -13 0 -12 -7 -21 -15
-21 -10 0 -15 -10 -15 -30 0 -16 -4 -30 -10 -30 -5 0 -10 -11 -10 -25 0 -14 5
-25 10 -25 6 0 10 7 10 15 0 8 7 15 15 15 9 0 15 9 15 25 0 16 6 25 15 25 10
0 15 10 15 30 0 20 5 30 15 30 8 0 15 6 15 14 0 10 -10 14 -30 14 -26 -1 -28
-3 -17 -16z"/>
<path d="M3580 2140 c0 -20 5 -30 15 -30 8 0 15 7 15 15 0 8 7 15 15 15 8 0
15 7 15 15 0 10 -10 15 -30 15 -27 0 -30 -3 -30 -30z"/>
<path d="M3890 1735 c0 -8 -7 -15 -15 -15 -8 0 -15 -7 -15 -15 0 -8 -7 -15
-15 -15 -11 0 -15 -11 -15 -40 0 -22 -4 -40 -10 -40 -5 0 -10 -7 -10 -15 0 -8
5 -15 10 -15 6 0 10 -18 10 -40 0 -29 4 -40 15 -40 8 0 15 -7 15 -15 0 -8 7
-15 15 -15 8 0 15 -7 15 -15 0 -12 16 -15 85 -15 69 0 85 3 85 15 0 8 5 15 10
15 6 0 10 7 10 15 0 8 -4 15 -10 15 -5 0 -10 -7 -10 -15 0 -12 -14 -15 -70
-15 -56 0 -70 3 -70 15 0 8 -7 15 -15 15 -8 0 -15 7 -15 15 0 8 -7 15 -15 15
-12 0 -15 14 -15 70 0 56 3 70 15 70 8 0 15 5 15 10 0 6 7 10 15 10 8 0 15 7
15 15 0 12 14 15 70 15 56 0 70 -3 70 -15 0 -8 5 -15 10 -15 6 0 10 7 10 15 0
8 -4 15 -10 15 -5 0 -10 7 -10 15 0 12 -16 15 -85 15 -69 0 -85 -3 -85 -15z"/>
<path d="M4640 1595 c0 -131 2 -155 15 -155 12 0 15 13 15 60 0 33 4 60 10 60
6 0 10 -7 10 -15 0 -8 7 -15 15 -15 10 0 15 -10 15 -30 0 -20 5 -30 15 -30 8
0 15 -7 15 -15 0 -10 10 -15 30 -15 20 0 30 5 30 15 0 8 -7 15 -15 15 -8 0
-15 7 -15 15 0 8 -7 15 -15 15 -10 0 -15 10 -15 30 0 20 -5 30 -15 30 -8 0
-15 5 -15 10 0 6 7 10 15 10 8 0 15 7 15 15 0 8 7 15 15 15 12 0 15 13 15 55
0 42 -3 55 -15 55 -8 0 -15 7 -15 15 0 12 -13 15 -55 15 l-55 0 0 -155z m108
82 c3 -28 0 -37 -12 -37 -9 0 -16 -5 -16 -11 0 -5 5 -7 12 -3 7 4 8 3 4 -4 -4
-7 -20 -12 -37 -12 -29 0 -29 1 -29 56 l0 55 37 -3 c35 -4 37 -6 41 -41z"/>
<path d="M5360 1595 l0 -155 85 0 c69 0 85 3 85 15 0 12 -14 15 -70 15 l-70 0
0 55 0 55 55 0 c54 0 55 0 55 30 0 30 -1 30 -55 30 l-55 0 0 40 0 40 70 0 c56
0 70 3 70 15 0 12 -16 15 -85 15 l-85 0 0 -155z"/>
<path d="M6170 1735 c0 -8 -7 -15 -15 -15 -9 0 -15 -9 -15 -25 0 -16 -6 -25
-15 -25 -9 0 -15 -9 -15 -22 0 -13 -3 -34 -7 -47 -6 -23 -7 -23 -14 -5 -5 13
-8 7 -8 -23 -1 -24 -5 -43 -11 -43 -5 0 -10 -13 -10 -30 0 -20 -5 -30 -15 -30
-8 0 -15 -7 -15 -15 0 -9 9 -15 25 -15 21 0 25 5 25 30 0 20 5 30 15 30 8 0
15 7 15 15 0 12 14 15 70 15 l70 0 0 -30 c0 -20 5 -30 15 -30 8 0 15 -7 15
-15 0 -8 7 -15 15 -15 10 0 15 10 15 30 0 20 -5 30 -15 30 -10 0 -15 10 -15
30 0 20 -5 30 -15 30 -11 0 -15 11 -15 40 0 29 -4 40 -15 40 -9 0 -15 9 -15
25 0 16 -6 25 -15 25 -10 0 -15 10 -15 30 0 17 -4 30 -10 30 -5 0 -10 -7 -10
-15z m20 -95 c0 -20 5 -30 15 -30 9 0 15 -9 15 -25 0 -22 -4 -25 -40 -25 l-40
0 0 40 c0 29 4 40 15 40 8 0 15 7 15 15 0 8 5 15 10 15 6 0 10 -13 10 -30z"/>
<path d="M6783 1734 c0 -7 3 -13 6 -12 3 0 21 0 39 -1 l32 -1 0 -140 0 -140
30 0 30 0 0 140 0 140 25 0 c16 0 25 6 25 15 0 14 -15 16 -93 14 -70 -1 -94
-5 -94 -15z"/>
<path d="M7500 1595 l0 -155 30 0 30 0 0 155 0 155 -30 0 -30 0 0 -155z"/>
<path d="M8080 1720 c0 -20 5 -30 15 -30 9 0 15 -9 15 -25 0 -16 6 -25 15 -25
11 0 15 -11 15 -40 0 -29 4 -40 15 -40 10 0 15 -10 15 -30 0 -16 5 -30 10 -30
6 0 10 -13 10 -30 0 -20 5 -30 15 -30 10 0 15 10 15 30 0 20 5 30 15 30 10 0
15 10 15 30 0 20 5 30 15 30 11 0 15 11 15 40 0 29 4 40 15 40 11 0 15 11 15
40 0 22 5 40 10 40 6 0 10 7 10 15 0 9 -9 15 -25 15 -22 0 -25 -4 -25 -40 0
-29 -4 -40 -15 -40 -11 0 -15 -12 -15 -45 0 -33 -4 -45 -15 -45 -9 0 -15 -9
-15 -25 0 -16 -6 -25 -15 -25 -9 0 -15 9 -15 25 0 14 -4 25 -10 25 -5 0 -10
20 -10 45 0 33 -4 45 -15 45 -9 0 -15 9 -15 25 0 16 -6 25 -15 25 -8 0 -15 7
-15 15 0 8 -7 15 -15 15 -10 0 -15 -10 -15 -30z"/>
<path d="M8860 1595 l0 -155 85 0 c69 0 85 3 85 15 0 12 -14 15 -70 15 l-70 0
0 55 0 55 70 0 70 0 0 30 0 30 -70 0 -70 0 0 40 0 40 70 0 c56 0 70 3 70 15 0
12 -16 15 -85 15 l-85 0 0 -155z"/>
</g>
</svg>
