<?xml version="1.0" standalone="no"?>
<!DOCTYPE svg PUBLIC "-//W3C//DTD SVG 20010904//EN"
 "http://www.w3.org/TR/2001/REC-SVG-20010904/DTD/svg10.dtd">
<svg version="1.0" xmlns="http://www.w3.org/2000/svg"
 width="225.000000pt" height="225.000000pt" viewBox="0 0 225.000000 225.000000"
 preserveAspectRatio="xMidYMid meet">

<g transform="translate(0.000000,225.000000) scale(0.100000,-0.100000)"
fill="#000000" stroke="none">
<path d="M2036 2234 c-287 -52 -614 -240 -932 -536 -149 -139 -328 -428 -341
-549 -8 -76 8 -102 136 -232 134 -137 173 -162 246 -154 133 14 409 185 559
348 296 320 480 642 531 933 21 125 20 143 -14 177 -34 34 -60 35 -185 13z"/>
<path d="M838 1865 c-207 -52 -405 -243 -581 -560 -31 -55 -72 -138 -92 -185
l-36 -85 38 37 c56 54 142 90 227 95 64 4 114 -5 225 -38 9 -3 17 14 26 56 46
213 257 566 394 658 14 9 22 19 19 22 -13 14 -166 14 -220 0z"/>
<path d="M1846 1052 c-10 -29 -133 -142 -218 -200 -152 -102 -320 -180 -438
-203 -36 -7 -66 -14 -68 -14 -1 -1 8 -28 19 -61 16 -43 22 -84 23 -154 1 -83
-2 -102 -25 -151 -15 -31 -43 -75 -64 -98 l-37 -41 55 25 c407 180 688 420
759 648 24 78 30 217 11 251 -10 19 -11 19 -17 -2z"/>
<path d="M433 779 c-105 -20 -167 -76 -233 -214 -42 -87 -140 -359 -184 -511
l-14 -52 71 20 c270 76 566 199 626 259 80 80 108 220 64 320 -57 129 -196
204 -330 178z"/>
</g>
</svg>
