<?xml version="1.0" standalone="no"?>
<!DOCTYPE svg PUBLIC "-//W3C//DTD SVG 20010904//EN"
 "http://www.w3.org/TR/2001/REC-SVG-20010904/DTD/svg10.dtd">
<svg version="1.0" xmlns="http://www.w3.org/2000/svg"
 width="225.000000pt" height="225.000000pt" viewBox="0 0 225.000000 225.000000"
 preserveAspectRatio="xMidYMid meet">

<g transform="translate(0.000000,225.000000) scale(0.100000,-0.100000)"
fill="#000000" stroke="none">
<path d="M1548 1583 c-240 -280 -555 -691 -590 -771 -38 -86 -5 -166 86 -208
81 -38 129 -29 189 34 41 43 244 520 366 860 50 140 60 182 42 182 -5 0 -47
-44 -93 -97z"/>
<path d="M1050 1639 c-314 -27 -581 -234 -701 -543 -54 -140 -84 -365 -60
-453 20 -72 88 -97 136 -48 23 22 25 31 25 124 0 174 41 322 123 449 135 207
371 329 597 308 l65 -5 58 72 58 72 -28 7 c-51 14 -197 23 -273 17z"/>
<path d="M1703 1288 c-18 -46 -33 -89 -33 -96 0 -7 12 -31 26 -53 65 -103 104
-262 104 -420 0 -93 2 -102 25 -124 32 -32 78 -33 109 -2 30 30 40 102 31 216
-17 201 -90 391 -207 534 l-23 28 -32 -83z"/>
</g>
</svg>
