<?xml version="1.0" standalone="no"?>
<!DOCTYPE svg PUBLIC "-//W3C//DTD SVG 20010904//EN"
 "http://www.w3.org/TR/2001/REC-SVG-20010904/DTD/svg10.dtd">
<svg version="1.0" xmlns="http://www.w3.org/2000/svg"
 width="840.000000pt" height="859.000000pt" viewBox="0 0 840.000000 859.000000"
 preserveAspectRatio="xMidYMid meet">

<g transform="translate(0.000000,859.000000) scale(0.100000,-0.100000)"
fill="#000000" stroke="none">
<path d="M330 7884 c-141 -38 -247 -146 -284 -289 -14 -53 -16 -323 -16 -2470
0 -2663 -5 -2472 64 -2579 41 -64 102 -118 176 -154 l55 -27 1463 -3 1462 -2
0 -460 0 -460 -567 0 c-613 0 -627 -1 -717 -54 -54 -32 -117 -102 -146 -162
-79 -169 -20 -371 138 -473 102 -65 -48 -61 2273 -59 l2104 3 60 24 c72 29
160 113 193 185 89 191 14 405 -176 498 l-67 33 -592 3 -593 3 0 459 0 460
1438 0 c1285 0 1444 2 1493 16 141 41 247 157 278 304 9 41 11 650 9 2480 -3
2296 -4 2427 -21 2470 -43 110 -130 199 -240 244 l-52 21 -3840 2 c-3357 2
-3847 0 -3895 -13z m7440 -2759 l0 -2165 -3565 0 -3565 0 0 2165 0 2165 3565
0 3565 0 0 -2165z"/>
<path d="M4560 6681 c-73 -24 -144 -85 -167 -146 -7 -17 -53 -158 -103 -315
-51 -157 -140 -436 -200 -620 -556 -1719 -554 -1713 -553 -1772 4 -232 310
-325 449 -136 25 34 54 120 424 1268 111 344 260 805 332 1025 139 429 147
471 114 550 -21 49 -69 101 -118 126 -42 22 -140 33 -178 20z"/>
<path d="M3245 5971 c-20 -9 -620 -287 -817 -379 -56 -26 -194 -91 -306 -143
-112 -52 -219 -107 -238 -122 -46 -39 -75 -98 -81 -169 -12 -129 46 -216 187
-281 163 -75 496 -230 600 -279 58 -27 233 -109 390 -181 265 -122 288 -131
345 -131 218 0 326 265 172 424 -33 34 -83 59 -462 235 -115 53 -254 117 -308
143 l-98 45 73 34 c709 327 753 349 794 389 75 74 94 196 45 292 -26 50 -89
105 -140 120 -44 14 -126 15 -156 3z"/>
<path d="M5004 5969 c-49 -14 -119 -82 -144 -141 -42 -99 -10 -229 73 -292 25
-19 655 -319 806 -383 22 -9 30 -18 24 -24 -5 -5 -189 -93 -409 -195 -433
-200 -454 -214 -495 -308 -25 -59 -23 -150 5 -204 45 -86 129 -137 226 -136
63 1 78 6 425 169 198 92 383 178 410 190 28 13 97 45 155 72 58 27 176 83
263 123 223 104 262 148 262 295 0 69 -4 86 -28 127 -38 65 -68 85 -257 173
-91 43 -203 95 -250 117 -124 58 -579 269 -765 355 -140 64 -167 73 -215 72
-30 0 -69 -5 -86 -10z"/>
</g>
</svg>
